<svg width="34" height="34" viewBox="0 0 34 34" fill="none" xmlns="http://www.w3.org/2000/svg">
<circle cx="17" cy="17.002" r="16.25" stroke="#EDEDED" stroke-width="1.5"/>
<path d="M12.1248 17.7682C11.605 17.7682 11.1836 17.3468 11.1836 16.827C11.1836 16.3072 11.605 15.8858 12.1248 15.8858H22.4628C22.9826 15.8858 23.404 16.3072 23.404 16.827C23.404 17.3468 22.9826 17.7682 22.4628 17.7682H12.1248ZM16.3227 11.389C16.3227 10.8527 16.7575 10.418 17.2938 10.418C17.8301 10.418 18.2649 10.8527 18.2649 11.389V22.235C18.2649 22.7713 17.8301 23.2061 17.2938 23.2061C16.7575 23.2061 16.3227 22.7713 16.3227 22.235V11.389Z" fill="#1B1C17"/>
</svg>
