<svg width="40" height="41" viewBox="0 0 40 41" fill="none" xmlns="http://www.w3.org/2000/svg">
<path d="M22.9479 20.2946L21.8294 22.5693C20.8009 21.8176 19.6953 21.244 18.5126 20.8484C17.3298 20.4528 16.0956 20.255 14.81 20.255C13.6787 20.255 12.586 20.4066 11.5318 20.7099C10.4776 21.0132 9.49411 21.4352 8.58134 21.9759C7.66857 22.5165 6.83936 23.1759 6.09372 23.9539C5.34807 24.7319 4.70527 25.5891 4.16532 26.5253C3.62538 27.4616 3.20756 28.4704 2.91187 29.5517C2.61618 30.633 2.46834 31.7539 2.46834 32.9144H0C0 31.332 0.224979 29.8089 0.674937 28.3451C1.12489 26.8814 1.77412 25.5297 2.62261 24.2902C3.4711 23.0506 4.47387 21.9495 5.6309 20.9869C6.78794 20.0242 8.09924 19.266 9.56482 18.7121C8.1121 17.7363 6.98078 16.5099 6.17085 15.033C5.36093 13.5561 4.94954 11.9209 4.93668 10.1275C4.93668 8.72969 5.1938 7.4176 5.70804 6.19123C6.22227 4.96485 6.92292 3.89012 7.80998 2.96704C8.69704 2.04396 9.7448 1.31868 10.9533 0.791211C12.1617 0.263737 13.4473 0 14.81 0C16.1728 0 17.4519 0.263737 18.6475 0.791211C19.8431 1.31868 20.8909 2.03737 21.7908 2.94726C22.6907 3.85715 23.3978 4.93188 23.912 6.17144C24.4263 7.41101 24.6834 8.72969 24.6834 10.1275C24.6834 10.9978 24.5806 11.8484 24.3749 12.6792C24.1692 13.5099 23.8606 14.2945 23.4492 15.033C23.0378 15.7715 22.5493 16.4572 21.9837 17.0902C21.418 17.7231 20.7688 18.2704 20.036 18.7319C20.5502 18.9429 21.0516 19.1737 21.5401 19.4242C22.0287 19.6748 22.4979 19.9649 22.9479 20.2946ZM7.40502 10.1275C7.40502 11.1824 7.59786 12.1649 7.98354 13.0748C8.36922 13.9847 8.89631 14.7891 9.56482 15.488C10.2333 16.1869 11.0175 16.7341 11.9175 17.1297C12.8174 17.5253 13.7816 17.7231 14.81 17.7231C15.8257 17.7231 16.7834 17.5253 17.6833 17.1297C18.5833 16.7341 19.3675 16.1934 20.036 15.5077C20.7045 14.822 21.238 14.0176 21.6365 13.0945C22.0351 12.1715 22.2279 11.1824 22.2151 10.1275C22.2151 9.08574 22.0222 8.10332 21.6365 7.18024C21.2509 6.25716 20.7238 5.45276 20.0553 4.76705C19.3868 4.08133 18.5961 3.53408 17.6833 3.12528C16.7706 2.71649 15.8128 2.51869 14.81 2.53187C13.7816 2.53187 12.8238 2.72968 11.9367 3.12528C11.0497 3.52089 10.2655 4.06155 9.5841 4.74727C8.90274 5.43298 8.36922 6.24397 7.98354 7.18024C7.59786 8.11651 7.40502 9.09893 7.40502 10.1275ZM34.3061 22.7869H39.4934L26.5347 40.51H21.4437L26.3804 30.3825H21.4437L28.9066 15.1912H38.8956L34.3061 22.7869ZM25.744 37.3847L34.5568 25.3187H29.8708L34.4603 17.7231H30.43L25.4548 27.8506H30.3914L25.744 37.3847Z" fill="#CDEF84"/>
</svg>
