<svg width="40" height="43" viewBox="0 0 40 43" fill="none" xmlns="http://www.w3.org/2000/svg">
<path d="M13.3008 22.8647H20.0812" stroke="#CDEF84" stroke-width="2.5" stroke-linecap="round" stroke-linejoin="round"/>
<path d="M13.3008 13.5918L26.8617 13.5918" stroke="#CDEF84" stroke-width="2.5" stroke-linecap="round" stroke-linejoin="round"/>
<path d="M36.6388 6.12135C38.1625 8.4603 38.1625 11.7163 38.1625 18.2283C38.1625 24.7404 38.1625 27.9964 36.6388 30.3353C35.9793 31.3479 35.1317 32.2173 34.1445 32.8938C32.1526 34.2591 29.4783 34.4317 24.6015 34.4535V34.4567L22.1028 39.5828C21.2699 41.2916 18.8926 41.2916 18.0597 39.5828L15.5609 34.4567V34.4535C10.6842 34.4317 8.00991 34.2591 6.01792 32.8938C5.03077 32.2173 4.18321 31.3479 3.52362 30.3353C2 27.9964 2 24.7404 2 18.2283C2 11.7163 2 8.4603 3.52362 6.12135C4.18321 5.10879 5.03077 4.23941 6.01792 3.56284C8.29818 2 11.4725 2 17.8211 2H22.3414C28.69 2 31.8643 2 34.1445 3.56284C35.1317 4.23941 35.9793 5.10879 36.6388 6.12135Z" stroke="#CDEF84" stroke-width="2.5" stroke-linecap="round" stroke-linejoin="round"/>
</svg>
