<svg width="22" height="26" viewBox="0 0 22 26" fill="none" xmlns="http://www.w3.org/2000/svg">
<path d="M11 14.1666C12.933 14.1666 14.5 12.5996 14.5 10.6666C14.5 8.73363 12.933 7.16663 11 7.16663C9.067 7.16663 7.5 8.73363 7.5 10.6666C7.5 12.5996 9.067 14.1666 11 14.1666Z" stroke="white" stroke-width="2" stroke-linecap="round" stroke-linejoin="round"/>
<path d="M10.9993 1.33331C8.52399 1.33331 6.15002 2.31664 4.39969 4.06698C2.64935 5.81732 1.66602 8.19129 1.66602 10.6666C1.66602 12.874 2.13502 14.3183 3.41602 15.9166L10.9993 24.6666L18.5827 15.9166C19.8637 14.3183 20.3327 12.874 20.3327 10.6666C20.3327 8.19129 19.3493 5.81732 17.599 4.06698C15.8487 2.31664 13.4747 1.33331 10.9993 1.33331V1.33331Z" stroke="white" stroke-width="2" stroke-linecap="round" stroke-linejoin="round"/>
</svg>
