<svg width="24" height="22" viewBox="0 0 24 22" fill="none" xmlns="http://www.w3.org/2000/svg">
<path d="M19.4062 11.8125L18.2132 13.0056L20.3909 15.1875H13.5C12.6049 15.1875 11.7464 15.5431 11.1135 16.176C10.4806 16.809 10.125 17.6674 10.125 18.5625C10.125 19.4576 10.4806 20.316 11.1135 20.949C11.7464 21.5819 12.6049 21.9375 13.5 21.9375H15.1875V20.25H13.5C13.0524 20.25 12.6232 20.0722 12.3068 19.7557C11.9903 19.4393 11.8125 19.0101 11.8125 18.5625C11.8125 18.1149 11.9903 17.6857 12.3068 17.3693C12.6232 17.0528 13.0524 16.875 13.5 16.875H20.3909L18.2115 19.0578L19.4062 20.25L23.625 16.0312L19.4062 11.8125Z" fill="white"/>
<path d="M6.75 15.1875H1.6875L1.68497 2.45194L11.3324 9.13106C11.4735 9.22867 11.641 9.28097 11.8125 9.28097C11.984 9.28097 12.1515 9.22867 12.2926 9.13106L21.9375 2.45531V10.125H23.625V1.6875C23.6246 1.24008 23.4466 0.811122 23.1302 0.494751C22.8139 0.17838 22.3849 0.000446746 21.9375 0H1.6875C1.24039 -5.03003e-07 0.811546 0.177442 0.495151 0.493362C0.178756 0.809282 0.000670672 1.23785 0 1.68497V15.1875C0.000669516 15.6348 0.178674 16.0637 0.494997 16.38C0.811319 16.6963 1.24015 16.8743 1.6875 16.875H6.75V15.1875ZM20.0804 1.6875L11.8125 7.4115L3.54459 1.6875H20.0804Z" fill="white"/>
</svg>
