<svg width="17" height="17" viewBox="0 0 17 17" fill="none" xmlns="http://www.w3.org/2000/svg">
<path fill-rule="evenodd" clip-rule="evenodd" d="M8.18005 0C3.57202 0 0 3.3755 0 7.93465C0 10.3193 0.977311 12.3801 2.56894 13.8034C2.70248 13.9231 2.78326 14.0905 2.78878 14.2699L2.83336 15.7249C2.84768 16.1891 3.32703 16.491 3.75178 16.3037L5.37532 15.5869C5.51294 15.5261 5.66714 15.5149 5.81213 15.5548C6.55815 15.7599 7.35223 15.8693 8.18005 15.8693C12.7881 15.8693 16.3601 12.4938 16.3601 7.93465C16.3601 3.3755 12.7881 0 8.18005 0Z" fill="url(#paint0_radial_684_36285)"/>
<path fill-rule="evenodd" clip-rule="evenodd" d="M3.2675 10.2551L5.67038 6.44282C6.0526 5.83627 6.87101 5.68535 7.44464 6.11541L9.3557 7.54876C9.53096 7.68026 9.77227 7.67964 9.94691 7.54713L12.5279 5.58821C12.8725 5.32686 13.3222 5.73913 13.0915 6.10498L10.6886 9.91729C10.3064 10.5236 9.48781 10.6748 8.91439 10.2447L7.00312 8.81135C6.82786 8.67986 6.58655 8.68047 6.41191 8.81299L3.8309 10.7719C3.48631 11.0333 3.03661 10.621 3.26729 10.2551H3.2675Z" fill="white"/>
<defs>
<radialGradient id="paint0_radial_684_36285" cx="0" cy="0" r="1" gradientUnits="userSpaceOnUse" gradientTransform="translate(3.19022 16.2364) scale(17.8325 17.8325)">
<stop stop-color="#0099FF"/>
<stop offset="0.61" stop-color="#A033FF"/>
<stop offset="0.93" stop-color="#FF5280"/>
<stop offset="1" stop-color="#FF7061"/>
</radialGradient>
</defs>
</svg>
