<svg width="23" height="23" viewBox="0 0 23 23" fill="none" xmlns="http://www.w3.org/2000/svg">
<path d="M18.3828 8.75H16.6328C16.6321 8.05402 16.3553 7.38674 15.8632 6.89461C15.3711 6.40248 14.7038 6.12569 14.0078 6.125V4.375C15.1677 4.37639 16.2797 4.83777 17.0999 5.65794C17.92 6.47811 18.3814 7.5901 18.3828 8.75V8.75Z" fill="white"/>
<path d="M21.8828 8.75H20.1328C20.131 7.12612 19.4851 5.56928 18.3368 4.42102C17.1885 3.27276 15.6317 2.62685 14.0078 2.625V0.875C16.0957 0.877316 18.0974 1.70774 19.5737 3.18409C21.0501 4.66044 21.8805 6.66213 21.8828 8.75V8.75Z" fill="white"/>
<path d="M20.1327 22.75H19.984C2.79022 21.7613 0.348971 7.25375 0.00772142 2.82625C-0.0456132 2.13216 0.178944 1.4453 0.632001 0.916759C1.08506 0.38822 1.72951 0.0612891 2.4236 0.00787588C2.49301 0.00262588 2.56272 8.20392e-07 2.63272 8.20392e-07H7.24397C7.59446 -0.000338473 7.93697 0.104572 8.22715 0.301142C8.51732 0.497713 8.74179 0.776886 8.87147 1.1025L10.2015 4.375C10.3295 4.6931 10.3613 5.04182 10.2929 5.37783C10.2244 5.71384 10.0588 6.02234 9.81647 6.265L7.95272 8.14625C8.24266 9.80116 9.03456 11.3269 10.221 12.5164C11.4075 13.706 12.9311 14.5019 14.5852 14.7962L16.484 12.915C16.7303 12.6754 17.0417 12.5136 17.3793 12.4498C17.717 12.386 18.066 12.423 18.3827 12.5563L21.6815 13.8775C22.0022 14.0113 22.2758 14.2375 22.4675 14.5273C22.6591 14.8172 22.7602 15.1575 22.7577 15.505V20.125C22.7577 20.8212 22.4812 21.4889 21.9889 21.9812C21.4966 22.4734 20.8289 22.75 20.1327 22.75ZM2.63272 1.75C2.51781 1.74966 2.40397 1.77195 2.29767 1.8156C2.19138 1.85925 2.09473 1.92342 2.01323 2.00443C1.93174 2.08543 1.867 2.1817 1.82271 2.28773C1.77841 2.39376 1.75544 2.50747 1.7551 2.62238C1.7551 2.64688 1.75597 2.67108 1.75772 2.695C2.16022 7.875 4.74147 20.125 20.0802 21C20.3118 21.0139 20.5394 20.9352 20.713 20.7813C20.8866 20.6274 20.992 20.4108 21.006 20.1793L21.0077 20.125V15.505L17.709 14.1837L15.1977 16.6775L14.7777 16.625C7.16522 15.6712 6.13272 8.05875 6.13272 7.98L6.08022 7.56L8.56522 5.04875L7.25272 1.75H2.63272Z" fill="white"/>
</svg>
