<svg width="21" height="18" viewBox="0 0 21 18" fill="none" xmlns="http://www.w3.org/2000/svg">
<path d="M19.6474 9.71666C19.7598 9.6685 19.8557 9.58838 19.9231 9.48626C19.9904 9.38413 20.0263 9.26448 20.0263 9.14214C20.0263 9.0198 19.9904 8.90015 19.9231 8.79802C19.8557 8.69589 19.7598 8.61578 19.6474 8.56761L1.64621 0.85308L1.64533 0.852196L1.08671 0.611779C0.980862 0.566294 0.864497 0.550952 0.750472 0.567449C0.636448 0.583946 0.529202 0.63164 0.440582 0.705262C0.351961 0.778883 0.285415 0.875568 0.248295 0.984635C0.211173 1.0937 0.204923 1.21091 0.230232 1.32331L0.362814 1.91551L0.36193 1.91816L1.96794 9.14214L0.361928 16.3661L0.361928 16.3697L0.229346 16.9619C0.204442 17.0741 0.210999 17.1911 0.248292 17.2999C0.285586 17.4087 0.352173 17.5051 0.440722 17.5784C0.529269 17.6518 0.636346 17.6993 0.750165 17.7158C0.863985 17.7322 0.980134 17.7169 1.08583 17.6716L19.6474 9.71666ZM16.3567 9.76704L3.10904 9.76704L3.21776 9.27826C3.23776 9.18861 3.23776 9.09566 3.21776 9.00602L3.10904 8.51723L16.3567 8.51723L17.8142 9.14214L16.3567 9.76704Z" fill="black"/>
</svg>
