<svg width="20" height="20" viewBox="0 0 20 20" fill="none" xmlns="http://www.w3.org/2000/svg">
<path d="M18.9375 0.25H5.9375C5.72201 0.25 5.51535 0.335603 5.36298 0.487976C5.2106 0.640349 5.125 0.847012 5.125 1.0625V5.125H1.0625C0.847012 5.125 0.640349 5.2106 0.487976 5.36298C0.335603 5.51535 0.25 5.72201 0.25 5.9375V18.9375C0.25 19.153 0.335603 19.3597 0.487976 19.512C0.640349 19.6644 0.847012 19.75 1.0625 19.75H14.0625C14.278 19.75 14.4847 19.6644 14.637 19.512C14.7894 19.3597 14.875 19.153 14.875 18.9375V14.875H18.9375C19.153 14.875 19.3597 14.7894 19.512 14.637C19.6644 14.4847 19.75 14.278 19.75 14.0625V1.0625C19.75 0.847012 19.6644 0.640349 19.512 0.487976C19.3597 0.335603 19.153 0.25 18.9375 0.25ZM18.125 13.25H14.875V5.9375C14.875 5.72201 14.7894 5.51535 14.637 5.36298C14.4847 5.2106 14.278 5.125 14.0625 5.125H6.75V1.875H18.125V13.25Z" fill="#1B1C17"/>
</svg>
