<svg width="22" height="22" viewBox="0 0 22 22" fill="none" xmlns="http://www.w3.org/2000/svg">
<path d="M12.4874 0.268561C9.89622 -0.086498 7.26403 0.507559 5.0765 1.94113C2.88897 3.37469 1.29372 5.55104 0.585065 8.06862C-0.123589 10.5862 0.102176 13.2751 1.22071 15.6393C2.33924 18.0035 4.27506 19.8833 6.671 20.9321C6.6059 20.1003 6.66505 19.2634 6.8465 18.4491C7.04692 17.5401 8.2505 12.5308 8.2505 12.5308C8.0108 11.9936 7.89102 11.4106 7.8995 10.8224C7.8995 9.21365 8.82792 8.01331 9.98275 8.01331C10.1902 8.01029 10.3959 8.05198 10.5858 8.13555C10.7757 8.21911 10.9454 8.34259 11.0834 8.49759C11.2213 8.65259 11.3242 8.83547 11.3852 9.0338C11.4461 9.23213 11.4637 9.44127 11.4366 9.64698C11.4366 10.622 10.8104 12.0975 10.4833 13.482C10.4186 13.7359 10.4145 14.0014 10.4713 14.2572C10.5281 14.513 10.6441 14.7519 10.8102 14.9546C10.9762 15.1573 11.1875 15.3182 11.4271 15.4242C11.6667 15.5303 11.9278 15.5786 12.1895 15.5652C14.2446 15.5652 15.6237 12.9316 15.6237 9.82248C15.6237 7.43806 14.0452 5.65489 11.1354 5.65489C10.4393 5.62785 9.74501 5.74253 9.0946 5.99199C8.44419 6.24145 7.85125 6.62048 7.35178 7.10607C6.85232 7.59166 6.45673 8.17368 6.18905 8.8168C5.92136 9.45993 5.78716 10.1507 5.79458 10.8473C5.76357 11.6201 6.01288 12.378 6.49658 12.9815C6.58697 13.049 6.65297 13.144 6.68462 13.2522C6.71628 13.3605 6.71188 13.4761 6.67208 13.5816C6.62225 13.781 6.49658 14.2566 6.44675 14.4321C6.43624 14.4911 6.41202 14.5469 6.37605 14.5949C6.34008 14.6429 6.29334 14.6818 6.23961 14.7084C6.18588 14.7351 6.12664 14.7488 6.06666 14.7484C6.00668 14.748 5.94763 14.7335 5.89425 14.7061C4.39492 14.106 3.68858 12.4561 3.68858 10.5721C3.68858 7.4879 6.27125 3.79589 11.4388 3.79589C15.5511 3.79589 18.2843 6.80431 18.2843 10.0218C18.2843 14.2566 15.927 17.4405 12.4419 17.4405C11.921 17.4571 11.4044 17.3422 10.9397 17.1062C10.475 16.8703 10.0773 16.521 9.78342 16.0906C9.78342 16.0906 9.15617 18.5996 9.03375 19.0741C8.78166 19.8939 8.40966 20.6719 7.92983 21.3827C8.92975 21.6861 9.96867 21.8377 11.013 21.8334C12.436 21.8345 13.8452 21.555 15.1599 21.0108C16.4747 20.4666 17.6692 19.6684 18.6751 18.6619C19.681 17.6554 20.4785 16.4604 21.0219 15.1453C21.5653 13.8302 21.844 12.4208 21.842 10.9979C21.8409 8.38146 20.8931 5.85377 19.1737 3.88165C17.4543 1.90952 15.0793 0.626157 12.4874 0.268561Z" fill="black"/>
</svg>
