<svg width="22" height="22" viewBox="0 0 22 22" fill="none" xmlns="http://www.w3.org/2000/svg">
<path d="M12.834 12.8333L15.1257 15.1249" stroke="black" stroke-width="1.5" stroke-linejoin="round"/>
<path d="M15.0632 16.9815C14.5336 16.4519 14.5336 15.5934 15.0632 15.0639C15.5927 14.5344 16.4512 14.5344 16.9808 15.0639L19.7688 17.852C20.2984 18.3815 20.2984 19.2401 19.7688 19.7695C19.2393 20.2991 18.3808 20.2991 17.8512 19.7695L15.0632 16.9815Z" stroke="black" stroke-width="1.5" stroke-linecap="round"/>
<path d="M14.6673 8.24992C14.6673 4.70609 11.7945 1.83325 8.25065 1.83325C4.70683 1.83325 1.83398 4.70609 1.83398 8.24992C1.83398 11.7938 4.70683 14.6666 8.25065 14.6666C11.7945 14.6666 14.6673 11.7938 14.6673 8.24992Z" stroke="black" stroke-width="1.5" stroke-linejoin="round"/>
</svg>
