<svg width="138" height="138" viewBox="0 0 138 138" fill="none" xmlns="http://www.w3.org/2000/svg">
<g clip-path="url(#clip0_3123_9117)">
<path d="M135.62 114.207H2.37942C1.06546 114.207 0 113.142 0 111.828V26.1726C0 24.8587 1.06546 23.7932 2.37942 23.7932H135.621C136.935 23.7932 138 24.8587 138 26.1726V111.828C138 113.142 136.934 114.207 135.62 114.207Z" fill="#F5F5F5"/>
<path d="M138 30.7485H0V26.1726C0 24.8587 1.06546 23.7932 2.37942 23.7932H135.621C136.935 23.7932 138 24.8587 138 26.1726L138 30.7485Z" fill="#FF4B55"/>
<path d="M138 51.6128H0V58.5678H138V51.6128Z" fill="#FF4B55"/>
<path d="M138 37.7024H0V44.6574H138V37.7024Z" fill="#FF4B55"/>
<path d="M138 72.4777H2.37942C1.06546 72.4777 0 71.4122 0 70.0983V65.5225H138V72.4777Z" fill="#FF4B55"/>
<path d="M138 93.3445H0V100.299H138V93.3445Z" fill="#FF4B55"/>
<path d="M135.62 114.207H2.37942C1.06546 114.207 0 113.142 0 111.828V107.252H138V111.828C138 113.142 136.934 114.207 135.62 114.207Z" fill="#FF4B55"/>
<path d="M138 79.4338H0V86.3888H138V79.4338Z" fill="#FF4B55"/>
<path d="M61.8619 23.7935H2.37942C1.06546 23.7935 0 24.8586 0 26.1726V70.098C0 71.412 1.06546 72.4774 2.37942 72.4774H61.8622C63.1761 72.4774 64.2416 71.412 64.2416 70.098V26.1726C64.2413 24.8586 63.1758 23.7935 61.8619 23.7935Z" fill="#41479B"/>
<path d="M6.67972 29.2542L7.20638 30.8337L8.87127 30.8463C9.08689 30.8482 9.17611 31.1232 9.0028 31.2512L7.6635 32.2404L8.16591 33.8276C8.23113 34.033 7.99691 34.2033 7.82145 34.0777L6.46706 33.1099L5.11266 34.078C4.9372 34.2033 4.70352 34.0333 4.7682 33.8279L5.27061 32.2406L3.93131 31.2514C3.758 31.1232 3.84722 30.8485 4.06284 30.8466L5.72773 30.8339L6.2544 29.2545C6.32232 29.0497 6.61125 29.0497 6.67972 29.2542Z" fill="#F5F5F5"/>
<path d="M6.67972 37.5165L7.20638 39.0959L8.87127 39.1086C9.08689 39.1105 9.17611 39.3854 9.0028 39.5134L7.6635 40.5026L8.16591 42.0899C8.23113 42.2953 7.99691 42.4656 7.82145 42.34L6.46706 41.3721L5.11266 42.3403C4.9372 42.4656 4.70352 42.2955 4.7682 42.0901L5.27061 40.5029L3.93131 39.5137C3.758 39.3854 3.84722 39.1108 4.06284 39.1089L5.72773 39.0962L6.2544 37.5167C6.32232 37.3122 6.61125 37.3122 6.67972 37.5165Z" fill="#F5F5F5"/>
<path d="M6.67972 45.7787L7.20638 47.3581L8.87127 47.3708C9.08689 47.3727 9.17611 47.6476 9.0028 47.7756L7.6635 48.7648L8.16591 50.3521C8.23113 50.5575 7.99691 50.7278 7.82145 50.6022L6.46706 49.6343L5.11266 50.6025C4.9372 50.7278 4.70352 50.5577 4.7682 50.3524L5.27061 48.7651L3.93131 47.7759C3.758 47.6476 3.84722 47.373 4.06284 47.3711L5.72773 47.3584L6.2544 45.779C6.32232 45.5744 6.61125 45.5744 6.67972 45.7787Z" fill="#F5F5F5"/>
<path d="M6.67972 54.0411L7.20638 55.6205L8.87127 55.6332C9.08689 55.6351 9.17611 55.91 9.0028 56.038L7.6635 57.0272L8.16591 58.6145C8.23113 58.8199 7.99691 58.9902 7.82145 58.8646L6.46706 57.8967L5.11266 58.8649C4.9372 58.9902 4.70352 58.8201 4.7682 58.6148L5.27061 57.0275L3.93131 56.0383C3.758 55.91 3.84722 55.6354 4.06284 55.6335L5.72773 55.6208L6.2544 54.0414C6.32232 53.8365 6.61125 53.8365 6.67972 54.0411Z" fill="#F5F5F5"/>
<path d="M6.67972 62.3033L7.20638 63.8827L8.87127 63.8954C9.08689 63.8973 9.17611 64.1722 9.0028 64.3002L7.6635 65.2894L8.16591 66.8767C8.23113 67.082 7.99691 67.2524 7.82145 67.1268L6.46706 66.1589L5.11266 67.127C4.9372 67.2524 4.70352 67.0823 4.7682 66.8769L5.27061 65.2897L3.93131 64.3005C3.758 64.1722 3.84722 63.8975 4.06284 63.8956L5.72773 63.883L6.2544 62.3035C6.32232 62.0984 6.61125 62.0984 6.67972 62.3033Z" fill="#F5F5F5"/>
<path d="M13.0938 33.3051L13.6204 34.8845L15.2853 34.8972C15.501 34.8991 15.5902 35.174 15.4169 35.302L14.0776 36.2912L14.58 37.8785C14.6452 38.0839 14.411 38.2542 14.2355 38.1286L12.8811 37.1605L11.5267 38.1286C11.3513 38.2539 11.1176 38.0839 11.1823 37.8785L11.6847 36.2912L10.3454 35.302C10.1721 35.1737 10.2613 34.8991 10.4769 34.8972L12.1418 34.8845L12.6685 33.3051C12.7361 33.1008 13.0256 33.1008 13.0938 33.3051Z" fill="#F5F5F5"/>
<path d="M13.0938 41.5675L13.6204 43.1469L15.2853 43.1596C15.501 43.1615 15.5902 43.4364 15.4169 43.5644L14.0776 44.5536L14.58 46.1409C14.6452 46.3463 14.411 46.5166 14.2355 46.391L12.8811 45.4229L11.5267 46.391C11.3513 46.5163 11.1176 46.3465 11.1823 46.1409L11.6847 44.5536L10.3454 43.5644C10.1721 43.4361 10.2613 43.1615 10.4769 43.1596L12.1418 43.1469L12.6685 41.5675C12.7361 41.3629 13.0256 41.3629 13.0938 41.5675Z" fill="#F5F5F5"/>
<path d="M13.0938 49.8297L13.6204 51.4091L15.2853 51.4218C15.501 51.4237 15.5902 51.6986 15.4169 51.8267L14.0776 52.8158L14.58 54.4031C14.6452 54.6085 14.411 54.7788 14.2355 54.6532L12.8811 53.6851L11.5267 54.6532C11.3513 54.7786 11.1176 54.6085 11.1823 54.4031L11.6847 52.8158L10.3454 51.8267C10.1721 51.6984 10.2613 51.4237 10.4769 51.4218L12.1418 51.4091L12.6685 49.8297C12.7361 49.6251 13.0256 49.6251 13.0938 49.8297Z" fill="#F5F5F5"/>
<path d="M13.0938 58.0919L13.6204 59.6714L15.2853 59.6841C15.501 59.686 15.5902 59.9609 15.4169 60.0889L14.0776 61.0781L14.58 62.6653C14.6452 62.8707 14.411 63.0411 14.2355 62.9155L12.8811 61.9473L11.5267 62.9155C11.3513 63.0408 11.1176 62.8707 11.1823 62.6653L11.6847 61.0781L10.3454 60.0889C10.1721 59.9606 10.2613 59.686 10.4769 59.6841L12.1418 59.6714L12.6685 58.0919C12.7361 57.8876 13.0256 57.8876 13.0938 58.0919Z" fill="#F5F5F5"/>
<path d="M19.5039 29.2543L20.0306 30.8337L21.6955 30.8464C21.9111 30.8483 22.0003 31.1232 21.827 31.2512L20.4877 32.2404L20.9901 33.8277C21.0554 34.033 20.8211 34.2034 20.6457 34.0778L19.2913 33.1096L17.9369 34.0778C17.7614 34.2031 17.5277 34.033 17.5924 33.8277L18.0948 32.2404L16.7555 31.2512C16.5822 31.1229 16.6714 30.8483 16.8871 30.8464L18.552 30.8337L19.0786 29.2543C19.1465 29.0497 19.4357 29.0497 19.5039 29.2543Z" fill="#F5F5F5"/>
<path d="M19.5039 37.5165L20.0306 39.096L21.6955 39.1086C21.9111 39.1105 22.0003 39.3854 21.827 39.5135L20.4877 40.5026L20.9901 42.0899C21.0554 42.2953 20.8211 42.4656 20.6457 42.34L19.2913 41.3719L17.9369 42.34C17.7614 42.4654 17.5277 42.2953 17.5924 42.0899L18.0948 40.5026L16.7555 39.5135C16.5822 39.3852 16.6714 39.1105 16.8871 39.1086L18.552 39.096L19.0786 37.5165C19.1465 37.3122 19.4357 37.3122 19.5039 37.5165Z" fill="#F5F5F5"/>
<path d="M19.5039 45.7787L20.0306 47.3582L21.6955 47.3708C21.9111 47.3727 22.0003 47.6476 21.827 47.7757L20.4877 48.7649L20.9901 50.3521C21.0554 50.5575 20.8211 50.7278 20.6457 50.6022L19.2913 49.6341L17.9369 50.6022C17.7614 50.7276 17.5277 50.5575 17.5924 50.3521L18.0948 48.7649L16.7555 47.7757C16.5822 47.6474 16.6714 47.3727 16.8871 47.3708L18.552 47.3582L19.0786 45.7787C19.1465 45.5744 19.4357 45.5744 19.5039 45.7787Z" fill="#F5F5F5"/>
<path d="M19.5039 54.0411L20.0306 55.6206L21.6955 55.6332C21.9111 55.6351 22.0003 55.9101 21.827 56.0381L20.4877 57.0273L20.9901 58.6145C21.0554 58.8199 20.8211 58.9902 20.6457 58.8646L19.2913 57.8965L17.9369 58.8646C17.7614 58.99 17.5277 58.8199 17.5924 58.6145L18.0948 57.0273L16.7555 56.0381C16.5822 55.9098 16.6714 55.6351 16.8871 55.6332L18.552 55.6206L19.0786 54.0411C19.1465 53.8366 19.4357 53.8366 19.5039 54.0411Z" fill="#F5F5F5"/>
<path d="M19.5039 62.3033L20.0306 63.8827L21.6955 63.8954C21.9111 63.8973 22.0003 64.1722 21.827 64.3002L20.4877 65.2894L20.9901 66.8767C21.0554 67.0821 20.8211 67.2524 20.6457 67.1268L19.2913 66.1587L17.9369 67.1268C17.7614 67.2521 17.5277 67.0821 17.5924 66.8767L18.0948 65.2894L16.7555 64.3002C16.5822 64.1719 16.6714 63.8973 16.8871 63.8954L18.552 63.8827L19.0786 62.3033C19.1465 62.0984 19.4357 62.0984 19.5039 62.3033Z" fill="#F5F5F5"/>
<path d="M25.918 33.3051L26.4447 34.8845L28.1096 34.8972C28.3252 34.8991 28.4144 35.174 28.2411 35.302L26.9018 36.2912L27.4042 37.8785C27.4694 38.0839 27.2352 38.2542 27.0597 38.1286L25.7053 37.1605L24.3509 38.1286C24.1755 38.2539 23.9418 38.0839 24.0065 37.8785L24.5089 36.2912L23.1696 35.302C22.9963 35.1737 23.0855 34.8991 23.3011 34.8972L24.966 34.8845L25.4927 33.3051C25.5603 33.1008 25.8498 33.1008 25.918 33.3051Z" fill="#F5F5F5"/>
<path d="M25.918 41.5675L26.4447 43.1469L28.1096 43.1596C28.3252 43.1615 28.4144 43.4364 28.2411 43.5644L26.9018 44.5536L27.4042 46.1409C27.4694 46.3463 27.2352 46.5166 27.0597 46.391L25.7053 45.4229L24.3509 46.391C24.1755 46.5163 23.9418 46.3465 24.0065 46.1409L24.5089 44.5536L23.1696 43.5644C22.9963 43.4361 23.0855 43.1615 23.3011 43.1596L24.966 43.1469L25.4927 41.5675C25.5603 41.3629 25.8498 41.3629 25.918 41.5675Z" fill="#F5F5F5"/>
<path d="M25.918 49.8297L26.4447 51.4091L28.1096 51.4218C28.3252 51.4237 28.4144 51.6986 28.2411 51.8267L26.9018 52.8158L27.4042 54.4031C27.4694 54.6085 27.2352 54.7788 27.0597 54.6532L25.7053 53.6851L24.3509 54.6532C24.1755 54.7786 23.9418 54.6085 24.0065 54.4031L24.5089 52.8158L23.1696 51.8267C22.9963 51.6984 23.0855 51.4237 23.3011 51.4218L24.966 51.4091L25.4927 49.8297C25.5603 49.6251 25.8498 49.6251 25.918 49.8297Z" fill="#F5F5F5"/>
<path d="M25.918 58.0919L26.4447 59.6714L28.1096 59.6841C28.3252 59.686 28.4144 59.9609 28.2411 60.0889L26.9018 61.0781L27.4042 62.6653C27.4694 62.8707 27.2352 63.0411 27.0597 62.9155L25.7053 61.9473L24.3509 62.9155C24.1755 63.0408 23.9418 62.8707 24.0065 62.6653L24.5089 61.0781L23.1696 60.0889C22.9963 59.9606 23.0855 59.686 23.3011 59.6841L24.966 59.6714L25.4927 58.0919C25.5603 57.8876 25.8498 57.8876 25.918 58.0919Z" fill="#F5F5F5"/>
<path d="M32.3323 29.2543L32.859 30.8337L34.5239 30.8464C34.7395 30.8483 34.8287 31.1232 34.6554 31.2512L33.3161 32.2404L33.8185 33.8277C33.8837 34.033 33.6495 34.2034 33.4741 34.0778L32.1194 33.1096L30.765 34.0778C30.5895 34.2031 30.3559 34.033 30.4205 33.8277L30.923 32.2404L29.5837 31.2512C29.4103 31.1229 29.4996 30.8483 29.7152 30.8464L31.3801 30.8337L31.9067 29.2543C31.9749 29.0497 32.2641 29.0497 32.3323 29.2543Z" fill="#F5F5F5"/>
<path d="M32.3323 37.5165L32.859 39.096L34.5239 39.1086C34.7395 39.1105 34.8287 39.3854 34.6554 39.5135L33.3161 40.5026L33.8185 42.0899C33.8837 42.2953 33.6495 42.4656 33.4741 42.34L32.1194 41.3719L30.765 42.34C30.5895 42.4654 30.3559 42.2953 30.4205 42.0899L30.923 40.5026L29.5837 39.5135C29.4103 39.3852 29.4996 39.1105 29.7152 39.1086L31.3801 39.096L31.9067 37.5165C31.9749 37.3122 32.2641 37.3122 32.3323 37.5165Z" fill="#F5F5F5"/>
<path d="M32.3323 45.7787L32.859 47.3582L34.5239 47.3708C34.7395 47.3727 34.8287 47.6476 34.6554 47.7757L33.3161 48.7649L33.8185 50.3521C33.8837 50.5575 33.6495 50.7278 33.4741 50.6022L32.1194 49.6341L30.765 50.6022C30.5895 50.7276 30.3559 50.5575 30.4205 50.3521L30.923 48.7649L29.5837 47.7757C29.4103 47.6474 29.4996 47.3727 29.7152 47.3708L31.3801 47.3582L31.9067 45.7787C31.9749 45.5744 32.2641 45.5744 32.3323 45.7787Z" fill="#F5F5F5"/>
<path d="M32.3323 54.0411L32.859 55.6206L34.5239 55.6332C34.7395 55.6351 34.8287 55.9101 34.6554 56.0381L33.3161 57.0273L33.8185 58.6145C33.8837 58.8199 33.6495 58.9902 33.4741 58.8646L32.1194 57.8965L30.765 58.8646C30.5895 58.99 30.3559 58.8199 30.4205 58.6145L30.923 57.0273L29.5837 56.0381C29.4103 55.9098 29.4996 55.6351 29.7152 55.6332L31.3801 55.6206L31.9067 54.0411C31.9749 53.8366 32.2641 53.8366 32.3323 54.0411Z" fill="#F5F5F5"/>
<path d="M32.3323 62.3033L32.859 63.8827L34.5239 63.8954C34.7395 63.8973 34.8287 64.1722 34.6554 64.3002L33.3161 65.2894L33.8185 66.8767C33.8837 67.0821 33.6495 67.2524 33.4741 67.1268L32.1194 66.1587L30.765 67.1268C30.5895 67.2521 30.3559 67.0821 30.4205 66.8767L30.923 65.2894L29.5837 64.3002C29.4103 64.1719 29.4996 63.8973 29.7152 63.8954L31.3801 63.8827L31.9067 62.3033C31.9749 62.0984 32.2641 62.0984 32.3323 62.3033Z" fill="#F5F5F5"/>
<path d="M38.7461 33.3051L39.2728 34.8845L40.9377 34.8972C41.1533 34.8991 41.2425 35.174 41.0692 35.302L39.7299 36.2912L40.2323 37.8785C40.2975 38.0839 40.0633 38.2542 39.8879 38.1286L38.5335 37.1605L37.1791 38.1286C37.0036 38.2539 36.7699 38.0839 36.8346 37.8785L37.337 36.2912L35.9977 35.302C35.8244 35.1737 35.9136 34.8991 36.1292 34.8972L37.7941 34.8845L38.3208 33.3051C38.389 33.1008 38.6779 33.1008 38.7461 33.3051Z" fill="#F5F5F5"/>
<path d="M38.7461 41.5675L39.2728 43.1469L40.9377 43.1596C41.1533 43.1615 41.2425 43.4364 41.0692 43.5644L39.7299 44.5536L40.2323 46.1409C40.2975 46.3463 40.0633 46.5166 39.8879 46.391L38.5335 45.4229L37.1791 46.391C37.0036 46.5163 36.7699 46.3465 36.8346 46.1409L37.337 44.5536L35.9977 43.5644C35.8244 43.4361 35.9136 43.1615 36.1292 43.1596L37.7941 43.1469L38.3208 41.5675C38.389 41.3629 38.6779 41.3629 38.7461 41.5675Z" fill="#F5F5F5"/>
<path d="M38.7461 49.8297L39.2728 51.4091L40.9377 51.4218C41.1533 51.4237 41.2425 51.6986 41.0692 51.8267L39.7299 52.8158L40.2323 54.4031C40.2975 54.6085 40.0633 54.7788 39.8879 54.6532L38.5335 53.6851L37.1791 54.6532C37.0036 54.7786 36.7699 54.6085 36.8346 54.4031L37.337 52.8158L35.9977 51.8267C35.8244 51.6984 35.9136 51.4237 36.1292 51.4218L37.7941 51.4091L38.3208 49.8297C38.389 49.6251 38.6779 49.6251 38.7461 49.8297Z" fill="#F5F5F5"/>
<path d="M38.7461 58.0919L39.2728 59.6714L40.9377 59.6841C41.1533 59.686 41.2425 59.9609 41.0692 60.0889L39.7299 61.0781L40.2323 62.6653C40.2975 62.8707 40.0633 63.0411 39.8879 62.9155L38.5335 61.9473L37.1791 62.9155C37.0036 63.0408 36.7699 62.8707 36.8346 62.6653L37.337 61.0781L35.9977 60.0889C35.8244 59.9606 35.9136 59.686 36.1292 59.6841L37.7941 59.6714L38.3208 58.0919C38.389 57.8876 38.6779 57.8876 38.7461 58.0919Z" fill="#F5F5F5"/>
<path d="M45.1563 29.2543L45.6829 30.8337L47.3478 30.8464C47.5635 30.8483 47.6527 31.1232 47.4794 31.2512L46.1401 32.2404L46.6425 33.8277C46.7077 34.033 46.4735 34.2034 46.298 34.0778L44.9436 33.1096L43.5892 34.0778C43.4138 34.2031 43.1801 34.033 43.2448 33.8277L43.7472 32.2404L42.4079 31.2512C42.2346 31.1229 42.3238 30.8483 42.5394 30.8464L44.2043 30.8337L44.731 29.2543C44.7986 29.0497 45.0881 29.0497 45.1563 29.2543Z" fill="#F5F5F5"/>
<path d="M45.1563 37.5165L45.6829 39.096L47.3478 39.1086C47.5635 39.1105 47.6527 39.3854 47.4794 39.5135L46.1401 40.5026L46.6425 42.0899C46.7077 42.2953 46.4735 42.4656 46.298 42.34L44.9436 41.3719L43.5892 42.34C43.4138 42.4654 43.1801 42.2953 43.2448 42.0899L43.7472 40.5026L42.4079 39.5135C42.2346 39.3852 42.3238 39.1105 42.5394 39.1086L44.2043 39.096L44.731 37.5165C44.7986 37.3122 45.0881 37.3122 45.1563 37.5165Z" fill="#F5F5F5"/>
<path d="M45.1563 45.7787L45.6829 47.3582L47.3478 47.3708C47.5635 47.3727 47.6527 47.6476 47.4794 47.7757L46.1401 48.7649L46.6425 50.3521C46.7077 50.5575 46.4735 50.7278 46.298 50.6022L44.9436 49.6341L43.5892 50.6022C43.4138 50.7276 43.1801 50.5575 43.2448 50.3521L43.7472 48.7649L42.4079 47.7757C42.2346 47.6474 42.3238 47.3727 42.5394 47.3708L44.2043 47.3582L44.731 45.7787C44.7986 45.5744 45.0881 45.5744 45.1563 45.7787Z" fill="#F5F5F5"/>
<path d="M45.1563 54.0411L45.6829 55.6206L47.3478 55.6332C47.5635 55.6351 47.6527 55.9101 47.4794 56.0381L46.1401 57.0273L46.6425 58.6145C46.7077 58.8199 46.4735 58.9902 46.298 58.8646L44.9436 57.8965L43.5892 58.8646C43.4138 58.99 43.1801 58.8199 43.2448 58.6145L43.7472 57.0273L42.4079 56.0381C42.2346 55.9098 42.3238 55.6351 42.5394 55.6332L44.2043 55.6206L44.731 54.0411C44.7986 53.8366 45.0881 53.8366 45.1563 54.0411Z" fill="#F5F5F5"/>
<path d="M45.1563 62.3033L45.6829 63.8827L47.3478 63.8954C47.5635 63.8973 47.6527 64.1722 47.4794 64.3002L46.1401 65.2894L46.6425 66.8767C46.7077 67.0821 46.4735 67.2524 46.298 67.1268L44.9436 66.1587L43.5892 67.1268C43.4138 67.2521 43.1801 67.0821 43.2448 66.8767L43.7472 65.2894L42.4079 64.3002C42.2346 64.1719 42.3238 63.8973 42.5394 63.8954L44.2043 63.8827L44.731 62.3033C44.7986 62.0984 45.0881 62.0984 45.1563 62.3033Z" fill="#F5F5F5"/>
<path d="M51.5703 33.3051L52.097 34.8845L53.7619 34.8972C53.9775 34.8991 54.0667 35.174 53.8934 35.302L52.5541 36.2912L53.0565 37.8785C53.1218 38.0839 52.8875 38.2542 52.7121 38.1286L51.3577 37.1605L50.0033 38.1286C49.8278 38.2539 49.5941 38.0839 49.6588 37.8785L50.1612 36.2912L48.8219 35.302C48.6486 35.1737 48.7378 34.8991 48.9535 34.8972L50.6184 34.8845L51.145 33.3051C51.2129 33.1008 51.5024 33.1008 51.5703 33.3051Z" fill="#F5F5F5"/>
<path d="M51.5703 41.5675L52.097 43.1469L53.7619 43.1596C53.9775 43.1615 54.0667 43.4364 53.8934 43.5644L52.5541 44.5536L53.0565 46.1409C53.1218 46.3463 52.8875 46.5166 52.7121 46.391L51.3577 45.4229L50.0033 46.391C49.8278 46.5163 49.5941 46.3465 49.6588 46.1409L50.1612 44.5536L48.8219 43.5644C48.6486 43.4361 48.7378 43.1615 48.9535 43.1596L50.6184 43.1469L51.145 41.5675C51.2129 41.3629 51.5024 41.3629 51.5703 41.5675Z" fill="#F5F5F5"/>
<path d="M51.5703 49.8297L52.097 51.4091L53.7619 51.4218C53.9775 51.4237 54.0667 51.6986 53.8934 51.8267L52.5541 52.8158L53.0565 54.4031C53.1218 54.6085 52.8875 54.7788 52.7121 54.6532L51.3577 53.6851L50.0033 54.6532C49.8278 54.7786 49.5941 54.6085 49.6588 54.4031L50.1612 52.8158L48.8219 51.8267C48.6486 51.6984 48.7378 51.4237 48.9535 51.4218L50.6184 51.4091L51.145 49.8297C51.2129 49.6251 51.5024 49.6251 51.5703 49.8297Z" fill="#F5F5F5"/>
<path d="M51.5703 58.0919L52.097 59.6714L53.7619 59.6841C53.9775 59.686 54.0667 59.9609 53.8934 60.0889L52.5541 61.0781L53.0565 62.6653C53.1218 62.8707 52.8875 63.0411 52.7121 62.9155L51.3577 61.9473L50.0033 62.9155C49.8278 63.0408 49.5941 62.8707 49.6588 62.6653L50.1612 61.0781L48.8219 60.0889C48.6486 59.9606 48.7378 59.686 48.9535 59.6841L50.6184 59.6714L51.145 58.0919C51.2129 57.8876 51.5024 57.8876 51.5703 58.0919Z" fill="#F5F5F5"/>
<path d="M57.9844 29.2543L58.5111 30.8337L60.176 30.8464C60.3916 30.8483 60.4808 31.1232 60.3075 31.2512L58.9682 32.2404L59.4706 33.8277C59.5358 34.033 59.3016 34.2034 59.1261 34.0778L57.7717 33.1096L56.4174 34.0778C56.2419 34.2031 56.0082 34.033 56.0729 33.8277L56.5753 32.2404L55.236 31.2512C55.0627 31.1229 55.1519 30.8483 55.3675 30.8464L57.0324 30.8337L57.5591 29.2543C57.627 29.0497 57.9159 29.0497 57.9844 29.2543Z" fill="#F5F5F5"/>
<path d="M57.9844 37.5165L58.5111 39.096L60.176 39.1086C60.3916 39.1105 60.4808 39.3854 60.3075 39.5135L58.9682 40.5026L59.4706 42.0899C59.5358 42.2953 59.3016 42.4656 59.1261 42.34L57.7717 41.3719L56.4174 42.34C56.2419 42.4654 56.0082 42.2953 56.0729 42.0899L56.5753 40.5026L55.236 39.5135C55.0627 39.3852 55.1519 39.1105 55.3675 39.1086L57.0324 39.096L57.5591 37.5165C57.627 37.3122 57.9159 37.3122 57.9844 37.5165Z" fill="#F5F5F5"/>
<path d="M57.9844 45.7787L58.5111 47.3582L60.176 47.3708C60.3916 47.3727 60.4808 47.6476 60.3075 47.7757L58.9682 48.7649L59.4706 50.3521C59.5358 50.5575 59.3016 50.7278 59.1261 50.6022L57.7717 49.6341L56.4174 50.6022C56.2419 50.7276 56.0082 50.5575 56.0729 50.3521L56.5753 48.7649L55.236 47.7757C55.0627 47.6474 55.1519 47.3727 55.3675 47.3708L57.0324 47.3582L57.5591 45.7787C57.627 45.5744 57.9159 45.5744 57.9844 45.7787Z" fill="#F5F5F5"/>
<path d="M57.9844 54.0411L58.5111 55.6206L60.176 55.6332C60.3916 55.6351 60.4808 55.9101 60.3075 56.0381L58.9682 57.0273L59.4706 58.6145C59.5358 58.8199 59.3016 58.9902 59.1261 58.8646L57.7717 57.8965L56.4174 58.8646C56.2419 58.99 56.0082 58.8199 56.0729 58.6145L56.5753 57.0273L55.236 56.0381C55.0627 55.9098 55.1519 55.6351 55.3675 55.6332L57.0324 55.6206L57.5591 54.0411C57.627 53.8366 57.9159 53.8366 57.9844 54.0411Z" fill="#F5F5F5"/>
<path d="M57.9844 62.3033L58.5111 63.8827L60.176 63.8954C60.3916 63.8973 60.4808 64.1722 60.3075 64.3002L58.9682 65.2894L59.4706 66.8767C59.5358 67.0821 59.3016 67.2524 59.1261 67.1268L57.7717 66.1587L56.4174 67.1268C56.2419 67.2521 56.0082 67.0821 56.0729 66.8767L56.5753 65.2894L55.236 64.3002C55.0627 64.1719 55.1519 63.8973 55.3675 63.8954L57.0324 63.8827L57.5591 62.3033C57.627 62.0984 57.9159 62.0984 57.9844 62.3033Z" fill="#F5F5F5"/>
</g>
<defs>
<clipPath id="clip0_3123_9117">
<rect width="138" height="138" fill="white"/>
</clipPath>
</defs>
</svg>
